HIERARCHY
ROOT Hips
{
     OFFSET 29.93890 93.63630 -15.76970
     CHANNELS 6 Xposition Yposition Zposition Zrotation Xrotation Yrotation
     JOINT Spine
     {
          OFFSET -0.00000 11.89050 -0.00000
          CHANNELS 3 Zrotation Xrotation Yrotation
          JOINT Spine1
          {
               OFFSET -0.00000 25.65740 0.12766
               CHANNELS 3 Zrotation Xrotation Yrotation
               JOINT HEad
               {
                    OFFSET 0.00000 8.73416 0.01134
                    CHANNELS 3 Zrotation Xrotation Yrotation
                    End Site
                    {
                         OFFSET -0.29000 12.77420 2.51395
                    }
               }
               JOINT LeftShoulder1
               {
                    OFFSET 8.99000 -0.36225 -0.22000
                    CHANNELS 3 Zrotation Xrotation Yrotation
                    JOINT LeftArm
                    {
                         OFFSET 10.28270 -0.00338 0.32212
                         CHANNELS 3 Zrotation Xrotation Yrotation
                         JOINT LeftForeArm
                         {
                              OFFSET 32.76690 0.09914 -1.42434
                              CHANNELS 3 Zrotation Xrotation Yrotation
                              JOINT LeftHand
                              {
                                   OFFSET 27.56430 0.08536 1.02216
                                   CHANNELS 3 Zrotation Xrotation Yrotation
                                   End Site
                                   {
                                        OFFSET 16.74430 -0.60000 1.50291
                                   }
                              }
                         }
                    }
               }
               JOINT RightShoulder
               {
                    OFFSET -8.99000 -0.36225 -0.22000
                    CHANNELS 3 Zrotation Xrotation Yrotation
                    JOINT RightArm
                    {
                         OFFSET -10.28270 -0.00338 0.32212
                         CHANNELS 3 Zrotation Xrotation Yrotation
                         JOINT RightForeArm
                         {
                              OFFSET -32.89710 0.09914 -1.42434
                              CHANNELS 3 Zrotation Xrotation Yrotation
                              JOINT RightHand
                              {
                                   OFFSET -27.49210 0.08536 1.02216
                                   CHANNELS 3 Zrotation Xrotation Yrotation
                                   End Site
                                   {
                                        OFFSET -16.63120 -0.60000 1.50291
                                   }
                              }
                         }
                    }
               }
          }
     }
     JOINT LeftUpLeg
     {
          OFFSET 8.94580 -8.66707 0.10165
          CHANNELS 3 Zrotation Xrotation Yrotation
          JOINT LeftLeg
          {
               OFFSET -0.00000 -44.42270 1.37270
               CHANNELS 3 Zrotation Xrotation Yrotation
               JOINT LeftFoot
               {
                    OFFSET -0.25355 -42.09240 -1.46059
                    CHANNELS 3 Zrotation Xrotation Yrotation
                    JOINT LeftToes
                    {
                         OFFSET -0.04000 -4.41509 8.49910
                         CHANNELS 3 Zrotation Xrotation Yrotation
                         End Site
                         {
                              OFFSET 0.08000 -0.04745 9.77979
                         }
                    }
               }
          }
     }
     JOINT RightUpLeg
     {
          OFFSET -8.94580 -8.66707 0.10165
          CHANNELS 3 Zrotation Xrotation Yrotation
          JOINT RightLeg
          {
               OFFSET -0.00000 -44.42270 1.37270
               CHANNELS 3 Zrotation Xrotation Yrotation
               JOINT RightFoot
               {
                    OFFSET 0.25355 -42.09240 -1.46059
                    CHANNELS 3 Zrotation Xrotation Yrotation
                    JOINT RightToes
                    {
                         OFFSET 0.04000 -4.41509 8.49910
                         CHANNELS 3 Zrotation Xrotation Yrotation
                         End Site
                         {
                              OFFSET -0.08000 -0.13745 9.77979
                         }
                    }
               }
          }
     }
}
MOTION
Frames: 10
Frame Time: 0.01667
26.45890 94.40210 -23.86260 -8.93772 -15.83220 -30.45710 -3.91799 11.49070 1.21734 -3.24530 22.63440 1.82092 -6.08500 2.54633 7.84257 -0.00000 0.00000 -0.00000 -142.75700 -49.09360 -116.72800 -55.04050 58.06420 -61.08340 20.13130 6.88813 -13.32890 0.53323 0.39161 3.44226 96.03030 9.33253 92.31420 -0.31868 28.12000 98.27820 2.35444 10.14440 4.86105 18.42580 -2.59192 -11.78450 -27.47120 8.35639 65.53850 -4.87498 11.84540 0.73984 7.60519 -14.52390 -61.77650 -25.55760 18.92670 17.17140 41.23110 1.58728 -37.36690 -31.33200 -6.91013 0.04548 3.94436 -31.31520 9.00586 
26.48190 94.23500 -23.31280 -9.25747 -15.97410 -30.68060 -3.86266 11.48750 1.29494 -3.13987 22.63800 1.96474 -5.72529 2.76679 7.71149 -0.00000 0.00000 -0.00000 -142.42400 -49.50910 -116.04100 -53.84330 58.12020 -62.04110 20.01750 6.96300 -13.00010 0.67459 0.42086 3.90213 95.89190 9.14534 92.22990 -0.61973 28.15080 98.82020 2.34313 10.12910 4.31915 18.51330 -2.41576 -12.63000 -28.16390 8.57620 67.41480 -4.03023 11.16920 0.57697 7.16759 -15.88610 -62.23910 -25.70470 19.28780 17.46110 41.32630 1.82488 -37.53450 -31.64170 -6.94942 0.03620 4.13551 -32.32700 9.06808 
26.49620 94.11970 -22.81990 -9.44002 -16.16990 -30.86920 -4.00461 11.47330 1.41082 -3.10349 22.59550 2.11844 -5.40837 3.16658 7.49537 -0.00000 0.00000 -0.00000 -142.10699 -49.98080 -115.34300 -52.32820 58.35140 -63.27450 19.86740 7.07020 -12.51020 1.05973 0.45661 4.21482 95.50670 8.88330 92.11060 -1.06879 28.16540 99.44920 2.27395 10.11070 3.80814 18.63890 -2.67387 -13.52910 -29.19670 9.19456 69.67020 -3.33749 11.34660 0.46761 6.60700 -17.56330 -62.83060 -25.95270 19.59350 17.73340 41.37820 2.07612 -37.70450 -31.99400 -6.89466 0.05479 4.31782 -33.36760 9.03001 
26.50160 94.06570 -22.39080 -9.48539 -16.43210 -31.01970 -4.33397 11.46250 1.55895 -3.14850 22.53790 2.27924 -5.13624 3.60453 7.14670 -0.00000 0.00000 -0.00000 -141.84700 -50.44840 -114.72400 -50.76580 58.63020 -64.53770 19.66870 7.18975 -11.98080 1.63400 0.49593 4.37152 94.89260 8.56516 92.00830 -1.72264 28.13060 100.15900 2.11382 10.08870 3.36666 18.83850 -3.30619 -14.36560 -30.59690 10.13970 72.15740 -2.65893 12.38740 0.37322 6.00354 -19.29460 -63.54760 -26.29780 19.86300 17.97870 41.36610 2.32511 -37.87360 -32.39100 -6.68385 0.12087 4.49973 -34.50380 8.88816 
26.50830 94.04120 -21.94220 -9.47061 -16.73530 -31.12080 -4.73160 11.44620 1.66308 -3.27022 22.48660 2.45435 -4.92682 4.02714 6.66461 -0.00000 0.00000 -0.00000 -141.88000 -50.87640 -114.39200 -49.60760 58.93630 -65.42330 19.47470 7.29047 -11.54750 2.24236 0.52866 4.36915 94.17120 8.25226 91.97490 -2.56190 28.02400 100.89000 1.88642 10.06620 3.03669 19.10890 -4.29041 -14.84710 -32.25570 11.66020 74.49630 -2.03053 14.00820 0.28255 5.45552 -20.79540 -64.29860 -26.70390 20.16640 18.22630 41.30500 2.55717 -38.03020 -32.75760 -6.33440 0.23016 4.67770 -35.72640 8.65148 
26.52900 94.04440 -21.46780 -9.37258 -17.07470 -31.27060 -5.28194 11.44540 1.77944 -3.45555 22.46020 2.64261 -4.80738 4.37255 6.12873 -0.00000 0.00000 -0.00000 -142.39000 -51.29590 -114.52600 -49.18780 59.27340 -65.64400 19.36200 7.34604 -11.30900 2.69585 0.54382 4.23005 93.51600 8.01909 92.04220 -3.49409 27.85020 101.54800 1.66655 10.04830 2.84541 19.28350 -5.77514 -14.60290 -34.00150 14.33320 76.42180 -1.76765 15.73330 0.24916 5.10632 -21.71370 -64.92660 -27.26460 20.44600 18.53900 41.22750 2.75605 -38.10290 -33.03950 -5.82068 0.39063 4.85794 -37.00810 8.39258 
26.58100 94.06520 -20.92920 -9.21516 -17.41110 -31.54680 -5.98249 11.45730 1.92591 -3.67462 22.44180 2.83339 -4.80245 4.59949 5.65509 -0.00000 0.00000 -0.00000 -143.41701 -51.80410 -115.21000 -49.76930 59.58390 -64.99190 19.35180 7.34566 -11.31990 2.89368 0.53878 4.00545 93.03210 7.88691 92.20190 -4.36478 27.65140 102.03000 1.53714 10.03950 2.80648 19.35850 -7.55471 -13.60870 -35.62270 17.85980 77.86460 -1.83103 17.18210 0.27638 5.00542 -21.97300 -65.35850 -28.01240 20.65700 18.97850 41.16120 2.90703 -38.04120 -33.14300 -5.16730 0.59240 5.05307 -38.28970 8.22206 
26.67740 94.08300 -20.28390 -9.06078 -17.68270 -31.99570 -6.74830 11.45880 2.09429 -3.87708 22.38670 3.01951 -4.88592 4.78774 5.33346 -0.00000 0.00000 -0.00000 -144.86099 -52.52870 -116.44500 -51.50450 59.76010 -63.35910 19.39020 7.29572 -11.58800 2.88151 0.51987 3.74005 92.67140 7.81307 92.41450 -5.05923 27.47600 102.27000 1.49601 10.03940 2.93261 19.46560 -9.17033 -12.19890 -36.85410 21.20930 78.91570 -1.82855 18.21380 0.28606 5.00316 -21.97980 -65.71260 -28.90070 20.77350 19.58050 41.12450 2.99941 -37.81630 -33.00260 -4.47244 0.80045 5.25321 -39.43480 8.18839 
26.82080 94.07660 -19.50810 -8.98472 -17.83570 -32.63820 -7.46926 11.42970 2.27168 -4.00363 22.25880 3.19663 -4.95104 5.08280 5.20537 -0.00000 0.00000 -0.00000 -146.38100 -53.59770 -118.08400 -54.09580 59.63920 -61.04010 19.37110 7.21835 -12.07000 2.77683 0.49459 3.44279 92.28910 7.74629 92.64160 -5.53527 27.34660 102.25100 1.46505 10.04290 3.21989 19.72270 -10.52470 -10.70120 -37.61310 24.00320 79.66470 -1.73283 18.74530 0.26936 4.89051 -22.25900 -66.19360 -29.83650 20.80350 20.32720 41.12020 3.02482 -37.39090 -32.65010 -3.83662 0.98076 5.40882 -40.28770 8.18687 
27.00680 94.03680 -18.59000 -9.05312 -17.83250 -33.47680 -8.03472 11.36540 2.43784 -4.00007 22.05600 3.35338 -4.91987 5.57104 5.26247 -0.00000 0.00000 -0.00000 -147.47400 -55.12280 -119.89000 -56.68470 59.11440 -58.83820 19.19960 7.14872 -12.64480 2.65227 0.46504 3.08625 91.77450 7.68010 92.87460 -5.73245 27.26790 101.95700 1.41445 10.04730 3.63480 20.24480 -11.58090 -9.41922 -37.90470 25.99370 80.04120 -1.65644 18.85220 0.25273 4.61746 -22.91600 -66.83150 -30.71910 20.78800 21.15170 41.12560 2.97154 -36.70200 -32.18950 -3.26493 1.13306 5.44972 -40.77600 7.98839 
